# xmcd
#
# Track frame offsets:
#	150
#	31638
#	52291
#	83213
#	109815
#	136232
#	161064
#	180825
#	223205
#	249209
#	281245
#
# Disc length: 4040 seconds
#
# Revision: 0
# Processed by: cddbd v1.5.1PL2 Copyright (c) Steve Scherf et al.
# Submitted via: dBpowerAMP V4.0
#
DISCID=980fc60b
DTITLE=Astrid Lindgren - Vi på Saltkråkan - CD-BOK 06/07
DYEAR=2003
DGENRE=CD-BOK
TTITLE0=06.01
TTITLE1=06.02
TTITLE2=06.03
TTITLE3=06.04
TTITLE4=06.05
TTITLE5=06.06
TTITLE6=06.07
TTITLE7=06.08
TTITLE8=06.09
TTITLE9=06.10
TTITLE10=06.11
EXTD=
EXTT0=
EXTT1=
EXTT2=
EXTT3=
EXTT4=
EXTT5=
EXTT6=
EXTT7=
EXTT8=
EXTT9=
EXTT10=
PLAYORDER=
